<svg width="129" height="129" viewBox="0 0 129 129" fill="none" xmlns="http://www.w3.org/2000/svg">
<path d="M86.0701 88.7294V78.0921C86.0701 75.6208 86.0701 74.3827 86.2745 73.3552C87.1138 69.1355 90.4127 65.8392 94.6324 64.9999C95.6599 64.7955 96.8954 64.7955 99.3667 64.7955C101.838 64.7955 103.074 64.7955 104.101 64.9999C108.321 65.8392 111.619 69.1355 112.458 73.3552C112.663 74.3827 112.663 75.6208 112.663 78.0921V88.7294C112.663 91.2007 112.663 92.4364 112.458 93.4639C111.619 97.6836 108.321 100.984 104.101 101.823C103.074 102.028 101.838 102.028 99.3667 102.028C96.8954 102.028 95.6599 102.028 94.6324 101.823C90.4127 100.984 87.1138 97.6836 86.2745 93.4639C86.0701 92.4364 86.0701 91.2007 86.0701 88.7294Z" fill="black"/>
<path d="M43.5209 88.7294V78.0921C43.5209 75.6208 43.5202 74.3827 43.3158 73.3552C42.4764 69.1355 39.1784 65.8392 34.9587 64.9999C33.9311 64.7955 32.6959 64.7955 30.2246 64.7955C27.7532 64.7955 26.5176 64.7955 25.49 64.9999C21.2703 65.8392 17.9715 69.1355 17.1321 73.3552C16.9277 74.3827 16.9277 75.6208 16.9277 78.0921V88.7294C16.9277 91.2007 16.9277 92.4364 17.1321 93.4639C17.9715 97.6836 21.2703 100.984 25.49 101.823C26.5176 102.028 27.7533 102.028 30.2246 102.028C32.6959 102.028 33.9311 102.028 34.9587 101.823C39.1784 100.984 42.4764 97.6836 43.3158 93.4639C43.5202 92.4364 43.5209 91.2007 43.5209 88.7294Z" fill="black"/>
<path d="M102.026 59.4768C102.026 38.915 85.3574 22.2463 64.7955 22.2463C44.2337 22.2463 27.565 38.915 27.565 59.4768M86.0701 78.0921V88.7294C86.0701 91.2007 86.0701 92.4364 86.2745 93.4639C87.1138 97.6836 90.4127 100.984 94.6324 101.823C95.6599 102.028 96.8954 102.028 99.3667 102.028C101.838 102.028 103.074 102.028 104.101 101.823C108.321 100.984 111.619 97.6836 112.458 93.4639C112.663 92.4364 112.663 91.2007 112.663 88.7294V78.0921C112.663 75.6208 112.663 74.3827 112.458 73.3552C111.619 69.1355 108.321 65.8392 104.101 64.9999C103.074 64.7955 101.838 64.7955 99.3667 64.7955C96.8954 64.7955 95.6599 64.7955 94.6324 64.9999C90.4127 65.8392 87.1138 69.1355 86.2745 73.3552C86.0701 74.3827 86.0701 75.6208 86.0701 78.0921ZM43.5209 78.0921V88.7294C43.5209 91.2007 43.5202 92.4364 43.3158 93.4639C42.4764 97.6836 39.1784 100.984 34.9587 101.823C33.9311 102.028 32.6959 102.028 30.2246 102.028C27.7533 102.028 26.5176 102.028 25.49 101.823C21.2703 100.984 17.9715 97.6836 17.1321 93.4639C16.9277 92.4364 16.9277 91.2007 16.9277 88.7294V78.0921C16.9277 75.6208 16.9277 74.3827 17.1321 73.3552C17.9715 69.1355 21.2703 65.8392 25.49 64.9999C26.5176 64.7955 27.7532 64.7955 30.2246 64.7955C32.6959 64.7955 33.9311 64.7955 34.9587 64.9999C39.1784 65.8392 42.4764 69.1355 43.3158 73.3552C43.5202 74.3827 43.5209 75.6208 43.5209 78.0921Z" stroke="black" stroke-width="6.68127" stroke-linecap="round" stroke-linejoin="round"/>
</svg>
