<svg width="157" height="157" viewBox="0 0 157 157" fill="none" xmlns="http://www.w3.org/2000/svg">
<circle cx="78.4461" cy="78.494" r="75.7211" stroke="white" stroke-opacity="0.1" stroke-width="4.45418"/>
<path d="M115.978 73.4768C115.978 52.915 99.3095 36.2463 78.7477 36.2463C58.1858 36.2463 41.5172 52.915 41.5172 73.4768M100.022 92.0921V102.729C100.022 105.201 100.022 106.436 100.227 107.464C101.066 111.684 104.365 114.984 108.585 115.823C109.612 116.028 110.848 116.028 113.319 116.028C115.79 116.028 117.026 116.028 118.053 115.823C122.273 114.984 125.571 111.684 126.41 107.464C126.615 106.436 126.615 105.201 126.615 102.729V92.0921C126.615 89.6208 126.615 88.3827 126.41 87.3552C125.571 83.1355 122.273 79.8392 118.053 78.9999C117.026 78.7955 115.79 78.7955 113.319 78.7955C110.848 78.7955 109.612 78.7955 108.585 78.9999C104.365 79.8392 101.066 83.1355 100.227 87.3552C100.022 88.3827 100.022 89.6208 100.022 92.0921ZM57.4731 92.0921V102.729C57.4731 105.201 57.4723 106.436 57.2679 107.464C56.4286 111.684 53.1305 114.984 48.9108 115.823C47.8833 116.028 46.648 116.028 44.1767 116.028C41.7054 116.028 40.4697 116.028 39.4422 115.823C35.2225 114.984 31.9236 111.684 31.0843 107.464C30.8799 106.436 30.8799 105.201 30.8799 102.729V92.0921C30.8799 89.6208 30.8799 88.3827 31.0843 87.3552C31.9236 83.1355 35.2225 79.8392 39.4422 78.9999C40.4697 78.7955 41.7054 78.7955 44.1767 78.7955C46.6481 78.7955 47.8833 78.7955 48.9108 78.9999C53.1305 79.8392 56.4286 83.1355 57.2679 87.3552C57.4723 88.3827 57.4731 89.6208 57.4731 92.0921Z" stroke="white" stroke-opacity="0.5" stroke-width="6.68127" stroke-linecap="round" stroke-linejoin="round"/>
</svg>
