<?xml version="1.0" standalone="no"?>
<!DOCTYPE svg PUBLIC "-//W3C//DTD SVG 20010904//EN"
 "http://www.w3.org/TR/2001/REC-SVG-20010904/DTD/svg10.dtd">
<svg version="1.0" xmlns="http://www.w3.org/2000/svg"
 width="1280.000000pt" height="640.000000pt" viewBox="0 0 1280.000000 640.000000"
 preserveAspectRatio="xMidYMid meet">
<metadata>
Created by potrace 1.15, written by Peter Selinger 2001-2017
</metadata>
<g transform="translate(0.000000,640.000000) scale(0.100000,-0.100000)"
fill="#000000" stroke="none">
<path d="M3203 5193 l-3203 -3 0 -1995 0 -1995 3194 0 c2119 0 3197 3 3201 10
4 7 1083 10 3206 10 l3199 0 0 1990 0 1990 -3197 -2 c-1759 -2 -4639 -4 -6400
-5z m3887 -1143 l0 -1130 105 0 105 0 0 -840 0 -840 -440 0 -440 0 0 1970 0
1970 335 0 335 0 0 -1130z m910 0 l0 -1130 110 0 110 0 0 -840 0 -840 -437 0
-438 0 2 837 3 838 104 3 103 3 7 37 c3 20 6 529 6 1130 l0 1092 215 0 215 0
0 -1130z m1120 -840 l0 -1970 -427 0 -428 0 2 837 3 838 100 3 c99 3 100 3
100 27 0 16 6 25 15 25 13 0 15 129 15 1105 l0 1105 310 0 310 0 0 -1970z
m700 840 l0 -1130 105 0 105 0 0 -840 0 -840 -430 0 -430 0 0 1970 0 1970 325
0 325 0 0 -1130z m912 -7 l3 -1138 103 -3 102 -3 0 -829 0 -830 -430 0 -430 0
0 840 0 840 120 0 120 0 0 1105 c0 976 -2 1105 -15 1105 -9 0 -15 9 -15 25 l0
25 220 0 220 0 2 -1137z m918 7 l0 -1129 105 -3 105 -3 3 -838 2 -837 -437 0
-438 0 0 830 0 830 115 0 115 0 0 1105 c0 730 -3 1105 -10 1105 -5 0 -10 16
-10 35 l0 35 225 0 225 0 0 -1130z m1130 -840 l0 -1970 -435 0 -435 0 0 840 0
840 110 0 110 0 -2 1130 -3 1130 328 0 327 0 0 -1970z m-12090 825 l0 -1135
100 0 100 0 0 -840 0 -840 -435 0 -435 0 0 1975 0 1975 335 0 335 0 0 -1135z
m910 -1 l0 -1135 105 3 105 3 0 -843 0 -842 -432 2 -433 3 -3 838 -2 837 110
0 c91 0 110 3 110 15 0 8 7 15 15 15 13 0 15 129 15 1100 0 971 -2 1100 -15
1100 -8 0 -15 9 -15 20 0 19 7 20 220 20 l220 0 0 -1136z m1120 -839 l0 -1975
-430 0 -430 0 2 841 3 840 100 2 c95 2 100 3 103 25 2 12 8 22 13 22 5 0 9
430 9 1104 0 874 -3 1105 -12 1109 -7 3 134 6 315 6 l327 1 0 -1975z m700 845
l0 -1130 105 0 105 0 0 -845 0 -845 -430 0 -430 0 0 1975 0 1975 325 0 325 0
0 -1130z m900 -5 l0 -1135 108 0 107 0 -2 -837 -3 -838 -425 -3 -425 -2 0 845
0 845 105 0 c98 0 105 1 105 20 0 11 5 20 10 20 16 0 14 2207 -2 2213 -7 3 85
6 205 6 l217 1 0 -1135z m922 3 l3 -1133 107 0 108 0 0 -843 0 -842 -437 2
-438 3 -3 838 -2 837 102 0 c102 0 103 0 116 27 16 35 18 2213 2 2213 -5 0
-10 7 -10 15 0 13 32 15 225 15 l225 0 2 -1132z m1136 -840 l-3 -1973 -433 -3
-432 -2 2 841 3 841 98 0 c76 0 97 3 97 13 0 8 6 18 13 22 18 12 18 2194 0
2206 -37 23 6 27 322 27 l335 0 -2 -1972z"/>
</g>
</svg>
