<svg width="400" height="82" viewBox="0 0 400 82" fill="none" xmlns="http://www.w3.org/2000/svg">
<path d="M345.75 31C345.75 43.8406 356.159 54.25 369 54.25C381.841 54.25 392.25 43.8406 392.25 31C392.25 18.1594 381.841 7.75 369 7.75C356.159 7.75 345.75 18.1594 345.75 31Z" fill="#D9D9D9" fill-opacity="0.2"/>
<path d="M363.833 38.75V23.25L376.75 31L363.833 38.75Z" fill="#D9D9D9" fill-opacity="0.2"/>
<path d="M345.75 31C345.75 43.8406 356.159 54.25 369 54.25C381.841 54.25 392.25 43.8406 392.25 31C392.25 18.1594 381.841 7.75 369 7.75C356.159 7.75 345.75 18.1594 345.75 31Z" stroke="white" stroke-width="2" stroke-linecap="round" stroke-linejoin="round"/>
<path d="M363.833 38.75V23.25L376.75 31L363.833 38.75Z" stroke="white" stroke-width="2" stroke-linecap="round" stroke-linejoin="round"/>
</svg>
